<mxfile host="app.diagrams.net" agent="Mozilla/5.0 (Windows NT 10.0; Win64; x64) AppleWebKit/537.36 (KHTML, like Gecko) Chrome/136.0.0.0 Safari/537.36" version="27.1.0">
  <diagram name="S3 Async Thumbnail Flow" id="hAcW8EN3phjjtrkyCCaA">
    <mxGraphModel dx="1892" dy="562" grid="1" gridSize="10" guides="1" tooltips="1" connect="1" arrows="1" fold="1" page="1" pageScale="1" pageWidth="850" pageHeight="1100" math="0" shadow="0">
      <root>
        <mxCell id="0" />
        <mxCell id="1" parent="0" />
        <mxCell id="BROTIU1IfKbmZwGM9ADa-1" value="User (Student/Tutor)" style="shape=ellipse;whiteSpace=wrap;html=1;" vertex="1" parent="1">
          <mxGeometry x="-90" y="250" width="160" height="60" as="geometry" />
        </mxCell>
        <mxCell id="BROTIU1IfKbmZwGM9ADa-2" value="Frontend (Browser)" style="shape=rectangle;whiteSpace=wrap;html=1;" vertex="1" parent="1">
          <mxGeometry x="190" y="20" width="160" height="60" as="geometry" />
        </mxCell>
        <mxCell id="BROTIU1IfKbmZwGM9ADa-3" value="Backend Server" style="shape=rectangle;whiteSpace=wrap;html=1;fillColor=#d5e8d4;" vertex="1" parent="1">
          <mxGeometry x="190" y="250" width="160" height="60" as="geometry" />
        </mxCell>
        <mxCell id="BROTIU1IfKbmZwGM9ADa-4" value="AWS S3" style="shape=folder;whiteSpace=wrap;html=1;fillColor=#dae8fc;" vertex="1" parent="1">
          <mxGeometry x="690" y="60" width="140" height="60" as="geometry" />
        </mxCell>
        <mxCell id="BROTIU1IfKbmZwGM9ADa-5" value="Database (Metadata + Thumbnail)" style="shape=cylinder;whiteSpace=wrap;html=1;" vertex="1" parent="1">
          <mxGeometry x="500" y="230" width="180" height="60" as="geometry" />
        </mxCell>
        <mxCell id="BROTIU1IfKbmZwGM9ADa-6" value="Worker Queue" style="shape=hexagon;whiteSpace=wrap;html=1;" vertex="1" parent="1">
          <mxGeometry x="110" y="440" width="120" height="60" as="geometry" />
        </mxCell>
        <mxCell id="BROTIU1IfKbmZwGM9ADa-19" style="edgeStyle=orthogonalEdgeStyle;rounded=0;orthogonalLoop=1;jettySize=auto;html=1;entryX=0.733;entryY=0.977;entryDx=0;entryDy=0;entryPerimeter=0;exitX=0.434;exitY=0.01;exitDx=0;exitDy=0;exitPerimeter=0;movable=1;resizable=1;rotatable=1;deletable=1;editable=1;locked=0;connectable=1;" edge="1" parent="1">
          <mxGeometry relative="1" as="geometry">
            <mxPoint x="580.0400000000001" y="288.02" as="targetPoint" />
            <mxPoint x="604.9000000000002" y="430" as="sourcePoint" />
            <Array as="points">
              <mxPoint x="605" y="431" />
              <mxPoint x="581" y="431" />
            </Array>
          </mxGeometry>
        </mxCell>
        <mxCell id="BROTIU1IfKbmZwGM9ADa-7" value="Thumbnail Generator Worker" style="shape=rectangle;whiteSpace=wrap;html=1;fillColor=#f8cecc;" vertex="1" parent="1">
          <mxGeometry x="570" y="430" width="200" height="60" as="geometry" />
        </mxCell>
        <mxCell id="BROTIU1IfKbmZwGM9ADa-8" style="endArrow=block;" edge="1" parent="1" source="BROTIU1IfKbmZwGM9ADa-1" target="BROTIU1IfKbmZwGM9ADa-2">
          <mxGeometry relative="1" as="geometry" />
        </mxCell>
        <mxCell id="BROTIU1IfKbmZwGM9ADa-9" style="endArrow=block;" edge="1" parent="1" source="BROTIU1IfKbmZwGM9ADa-2" target="BROTIU1IfKbmZwGM9ADa-3">
          <mxGeometry relative="1" as="geometry" />
        </mxCell>
        <mxCell id="BROTIU1IfKbmZwGM9ADa-10" style="endArrow=block;" edge="1" parent="1" source="BROTIU1IfKbmZwGM9ADa-2" target="BROTIU1IfKbmZwGM9ADa-4">
          <mxGeometry relative="1" as="geometry" />
        </mxCell>
        <mxCell id="BROTIU1IfKbmZwGM9ADa-11" style="endArrow=block;" edge="1" parent="1" source="BROTIU1IfKbmZwGM9ADa-3" target="BROTIU1IfKbmZwGM9ADa-4">
          <mxGeometry relative="1" as="geometry" />
        </mxCell>
        <mxCell id="BROTIU1IfKbmZwGM9ADa-12" style="endArrow=block;" edge="1" parent="1" source="BROTIU1IfKbmZwGM9ADa-3" target="BROTIU1IfKbmZwGM9ADa-5">
          <mxGeometry relative="1" as="geometry" />
        </mxCell>
        <mxCell id="BROTIU1IfKbmZwGM9ADa-13" style="endArrow=block;" edge="1" parent="1" source="BROTIU1IfKbmZwGM9ADa-3" target="BROTIU1IfKbmZwGM9ADa-6">
          <mxGeometry relative="1" as="geometry" />
        </mxCell>
        <mxCell id="BROTIU1IfKbmZwGM9ADa-14" style="endArrow=block;" edge="1" parent="1" source="BROTIU1IfKbmZwGM9ADa-6" target="BROTIU1IfKbmZwGM9ADa-7">
          <mxGeometry relative="1" as="geometry" />
        </mxCell>
        <mxCell id="BROTIU1IfKbmZwGM9ADa-15" style="endArrow=block;" edge="1" parent="1" source="BROTIU1IfKbmZwGM9ADa-7" target="BROTIU1IfKbmZwGM9ADa-4">
          <mxGeometry relative="1" as="geometry" />
        </mxCell>
        <mxCell id="BROTIU1IfKbmZwGM9ADa-16" style="endArrow=block;" edge="1" parent="1" source="BROTIU1IfKbmZwGM9ADa-7" target="BROTIU1IfKbmZwGM9ADa-5">
          <mxGeometry relative="1" as="geometry" />
        </mxCell>
        <mxCell id="BROTIU1IfKbmZwGM9ADa-17" style="endArrow=block;" edge="1" parent="1" source="BROTIU1IfKbmZwGM9ADa-2" target="BROTIU1IfKbmZwGM9ADa-3">
          <mxGeometry relative="1" as="geometry" />
        </mxCell>
        <mxCell id="BROTIU1IfKbmZwGM9ADa-18" style="endArrow=block;" edge="1" parent="1" source="BROTIU1IfKbmZwGM9ADa-2" target="BROTIU1IfKbmZwGM9ADa-5">
          <mxGeometry relative="1" as="geometry" />
        </mxCell>
      </root>
    </mxGraphModel>
  </diagram>
</mxfile>
